<svg width="52" height="49" viewBox="0 0 52 49" fill="none" xmlns="http://www.w3.org/2000/svg">
<path d="M20.7783 6.94504C21.2817 6.43872 21.9023 6.06461 22.5851 5.85595C23.2678 5.64729 23.9916 5.61056 24.6919 5.74902C25.3923 5.88748 26.0476 6.19685 26.5996 6.64961C27.1517 7.10237 27.5832 7.6845 27.856 8.34426C28.1288 9.00402 28.2344 9.72096 28.1634 10.4313C28.0923 11.1417 27.8468 11.8236 27.4488 12.4162C27.0507 13.0089 26.5124 13.494 25.8816 13.8285C25.2509 14.1629 24.5473 14.3364 23.8333 14.3334H4.33334M27.2783 39.055C27.7817 39.5614 28.4023 39.9355 29.0851 40.1441C29.7678 40.3528 30.4916 40.3895 31.1919 40.2511C31.8923 40.1126 32.5476 39.8032 33.0996 39.3505C33.6517 38.8977 34.0832 38.3156 34.356 37.6558C34.6288 36.9961 34.7344 36.2791 34.6634 35.5687C34.5923 34.8583 34.3468 34.1765 33.9488 33.5839C33.5507 32.9912 33.0124 32.5061 32.3816 32.1716C31.7509 31.8372 31.0473 31.6637 30.3333 31.6667H4.33334M38.415 13.7484C39.0452 13.1198 39.8206 12.6562 40.6725 12.3986C41.5245 12.1409 42.4268 12.0972 43.2997 12.2713C44.1726 12.4454 44.9892 12.8319 45.6771 13.3967C46.3651 13.9614 46.9033 14.687 47.2441 15.5092C47.585 16.3314 47.7179 17.225 47.6312 18.1108C47.5446 18.9967 47.2409 19.8475 46.7472 20.5881C46.2535 21.3287 45.5848 21.9362 44.8004 22.3569C44.0161 22.7775 43.1401 22.9984 42.25 23H4.33334" stroke="#0094FF" stroke-width="3.33333" stroke-linecap="round" stroke-linejoin="round"/>
</svg>
