<svg width="699" height="820" viewBox="0 0 699 820" fill="none" xmlns="http://www.w3.org/2000/svg">
<g clip-path="url(#clip0_62_482)">
<path fill-rule="evenodd" clip-rule="evenodd" d="M720.94 404.722C727.129 408.909 731.163 411.649 735.197 414.365C757.885 429.669 765.918 452.145 755.921 476.905C745.69 502.239 734.695 527.305 722.934 551.96C710.691 577.625 689.455 591.229 660.996 588.979C645.302 587.737 636.792 593.098 628.97 605.921C606.431 642.879 579.432 676.339 546.248 704.5C430.488 802.739 267.731 777.876 186.801 649.442C164.548 614.119 148.592 575.906 138.684 535.443C134.594 518.728 128.515 508.245 109.508 503.949C82.889 497.936 67.6184 478.059 63.8466 450.918C60.0878 423.852 56.8982 396.668 54.7172 369.429C52.595 342.92 67.2319 323.701 93.3703 316.092C98.0784 314.72 102.812 313.44 110.197 311.375C109.416 302.484 108.996 293.731 107.837 285.08C99.5976 223.363 103.136 162.469 123.561 103.502C153.707 16.4497 217.776 -29.2288 306.829 -44.1421C369.416 -54.6195 430.624 -40.3882 492.435 -36.3436C537.82 -33.3752 583.354 -31.0034 628.799 -31.231C649.924 -31.3332 670.947 -38.7348 692.162 -41.8138C699.551 -42.8826 707.382 -40.9127 715.011 -40.33C714.363 -33.6139 713.604 -26.905 713.1 -20.1765C711.472 1.77157 694.855 13.1506 678.327 25.8897C684.137 31.7507 688.388 36.68 693.27 40.8621C754.472 93.238 775.824 160.919 768.928 239.091C764.442 289.897 751.175 338.432 728.641 384.343C725.781 390.184 723.998 396.541 720.94 404.722ZM696.062 371.188C697.856 371.575 699.655 371.967 701.449 372.359C704.934 365.175 709.271 358.267 711.749 350.748C719.255 327.949 727.684 305.271 732.814 281.903C752.059 194.255 741.169 115.252 665.4 55.3186C653.678 46.0399 647.528 29.843 628.258 31.3368C621.39 31.8754 611.615 28.359 614.724 18.3754C615.884 14.6551 624.82 12.4035 630.571 11.2643C642.584 8.88877 654.976 8.34691 666.902 5.6554C671.136 4.69878 674.45 -0.311466 681.047 -5.89709C658.016 -3.95483 639.815 -0.326533 621.854 -1.29603C558.22 -4.71714 494.624 -9.18613 431.106 -14.292C388.085 -17.7475 345.261 -21.9874 302.288 -13.7854C220.08 1.92239 167.831 49.5815 145.412 130.523C133.952 171.876 131.524 213.86 134.103 256.215C135.284 275.647 139.612 294.887 142.583 314.676C169.594 315.865 183.295 302.308 191.098 282.861C198.783 263.704 203.714 243.447 210.012 223.726C234.4 147.418 299.97 104.365 379.982 112.816C402.214 115.171 424.282 119.331 446.353 123.052C472.857 127.52 499.013 130.154 523.863 115.918C526.018 114.687 530 116.653 533.327 117.163C537.709 132.357 527.883 139.053 517.525 140.965C499.852 144.235 481.442 146.549 463.645 145.243C438.087 143.359 412.855 137.466 387.395 133.982C304.121 122.622 241.46 167.325 223.035 249.586C219.104 267.133 212.688 284.625 204.401 300.578C192.589 323.337 173.321 335.584 146.241 336.472C130.179 336.993 113.638 340.866 98.6106 346.61C92.1859 349.061 84.8524 360.315 85.1674 367.242C86.4533 395.324 89.3576 423.479 94.1509 451.182C96.3075 463.67 103.47 476.348 123.419 471.212C122.478 461.525 121.954 452.581 120.684 443.736C118.318 427.328 115.392 411.006 112.947 394.605C111.407 384.241 111.09 373.245 124.658 371.518C136.817 369.979 139.331 380.326 140.926 389.474C145.482 415.598 149.613 441.799 153.903 467.976C165.016 535.807 183.66 600.975 227.242 655.829C268.948 708.313 323.843 734.491 391.485 734.457C447.767 734.435 494.509 712.321 535.177 675.49C571.839 642.29 599.989 602.396 622.761 558.692C637.317 530.757 651.065 502.4 665.45 474.375C670.276 464.972 675.174 451.749 688.704 458.173C703.87 465.383 695.374 478.079 690.7 488.247C683.08 504.814 674.376 520.874 666.665 537.397C664.08 542.939 663.092 549.232 661.141 555.978C680.703 561.661 690.366 551.852 696.754 538.716C707.262 517.113 716.752 494.998 726.044 472.833C734.425 452.826 731.126 444.325 710.837 436.164C688.117 427.026 678.085 408.142 676.166 386.616C673.924 361.466 666.372 339.034 650.464 320.611C627.221 293.698 601.725 268.753 577.29 242.873C564.248 229.055 549.396 216.355 539.167 200.67C531.986 189.648 530.343 174.57 528.153 160.994C527.574 157.383 534.092 152.635 537.354 148.407C540.72 152.391 546.98 156.369 547.006 160.374C547.149 185.627 563.028 201.275 579.36 216.836C593.766 230.565 608.842 243.621 622.79 257.797C654.908 290.444 685.64 324.168 696.062 371.188Z" fill="white"/>
<path fill-rule="evenodd" clip-rule="evenodd" d="M380.831 585.152C410.079 590.533 435.422 603.629 456.226 625.187C459.647 628.721 463.181 632.658 464.95 637.095C466.245 640.333 465.817 647.365 464.219 648.023C460.402 649.595 454.824 649.736 451.111 647.987C446.872 646.006 443.956 641.281 440.357 637.866C402.943 602.437 353.398 595.094 307.097 617.837C298.863 621.879 288.146 632.986 281.807 619.809C276.255 608.28 290.669 603.862 298.736 599.545C324.31 585.869 351.827 581.496 380.831 585.152Z" fill="white"/>
<path fill-rule="evenodd" clip-rule="evenodd" d="M235.29 291.579C243.582 291.522 252.172 290.032 260.13 291.655C292.471 298.242 322.484 296.202 348.879 273.441C352.117 270.644 358.929 271.97 364.087 271.394C362.897 277.281 363.741 285.884 360.154 288.569C348.424 297.345 335.839 306.156 322.183 310.943C297.237 319.686 271.477 316.19 246.586 308.769C241.473 307.244 237.556 301.698 233.091 298.009C233.824 295.862 234.552 293.72 235.29 291.579Z" fill="white"/>
<path fill-rule="evenodd" clip-rule="evenodd" d="M491.038 288.462C510.084 304.136 526.329 320.068 545.048 332.175C563.03 343.807 588.65 335.573 607.695 350.3C591.441 365.964 552.124 362.144 522.141 344.01C496.531 328.512 485.09 309.27 491.038 288.462Z" fill="white"/>
<path fill-rule="evenodd" clip-rule="evenodd" d="M408.819 388.796C412.951 399.498 416.706 404.196 415.796 407.686C410.046 429.818 404 451.938 396.21 473.402C394.569 477.941 385.291 479.716 379.528 482.756C379.352 476.831 377.785 470.527 379.264 465.04C383.52 449.227 388.569 433.584 394.189 418.194C397.253 409.818 402.108 402.097 408.819 388.796Z" fill="white"/>
<path fill-rule="evenodd" clip-rule="evenodd" d="M319.824 374.203C316.442 395.049 308.819 405.292 298.387 401.451C282.328 395.543 286.682 381.637 288.224 369.628C291.237 346.092 298.152 337.033 309.99 339.88C320.408 342.387 323.33 352.582 319.824 374.203Z" fill="white"/>
<path fill-rule="evenodd" clip-rule="evenodd" d="M532.577 407.22C531.516 411.628 531.409 418.959 528.009 424.146C524.922 428.855 517.872 434.308 513.291 433.733C508.543 433.133 501.228 425.793 501.073 421.193C500.652 409.034 502.044 396.31 505.701 384.756C507.382 379.452 515.891 373.295 521.616 372.962C531.648 372.376 534.738 381.157 534.303 390.37C534.061 395.299 533.312 400.219 532.577 407.22Z" fill="white"/>
<path fill-rule="evenodd" clip-rule="evenodd" d="M405.406 651.824C379.151 653.502 359.322 653.968 339.87 639.32C361.337 627.523 387.172 631.64 405.406 651.824Z" fill="white"/>
</g>
<defs>
<clipPath id="clip0_62_482">
<rect width="714.321" height="850.818" fill="white" transform="translate(129.552 -129.972) rotate(8.70558)"/>
</clipPath>
</defs>
</svg>
