<svg width="710" height="817" viewBox="0 0 710 817" fill="none" xmlns="http://www.w3.org/2000/svg">
<g clip-path="url(#clip0_59_888)">
<path fill-rule="evenodd" clip-rule="evenodd" d="M766.442 269.985C760.048 311.339 747.427 350.738 728.623 388.069C721.987 401.239 721.654 410.157 736.383 419.537C759.3 434.12 764.786 456.07 754.097 482.486C744.537 506.115 733.395 529.119 722.486 552.18C709.822 578.931 687.707 591.955 658.801 589.74C642.485 588.489 634.245 594.588 626.164 607.452C597.477 653.127 563.179 694.084 517.007 723.138C399.413 797.145 256.242 762.385 184.732 643.317C162.731 606.674 147.76 567.283 137.728 525.991C134.398 512.271 128.768 504.162 113.999 500.207C82.8089 491.869 66.4594 469.95 63.777 437.681C61.9917 416.21 59.5863 394.787 57.6584 373.326C54.5253 338.457 66.1061 320.869 99.9506 312.252C112.086 309.161 115.596 303.871 113.312 292.146C102.263 235.387 106.868 178.979 121.263 123.689C141.285 46.7892 186.909 -8.23548 264.351 -33.5588C306.699 -47.4055 350.196 -51.4436 394.352 -47.109C453.11 -41.344 511.72 -34.005 570.518 -28.7531C614.346 -24.8371 658.172 -24.5699 700.869 -38.9081C706.479 -40.7913 713.846 -37.4394 720.393 -36.5156C719.483 -30.6705 718.765 -24.784 717.615 -18.9834C714.24 -2.01599 706.129 11.4695 690.951 21.021C688.452 22.5913 689.786 31.5658 690.806 36.84C691.296 39.3499 695.168 41.2367 697.556 43.3453C760.63 99.0554 780.128 169.867 769.528 251.09C768.712 257.421 767.488 263.701 766.442 269.985ZM683.207 -1.82133C679.525 -3.6817 678.061 -5.11337 676.787 -4.96373C591.79 5.09805 508.019 -6.95689 423.97 -17.4447C390.953 -21.5658 356.843 -22.8646 323.794 -19.6646C240.2 -11.5723 180.535 30.6974 151.797 111.757C130.995 170.431 129.217 230.493 139.921 291.319C144.104 315.1 154.363 320.357 172.917 305.503C183.041 297.402 191.406 285.557 196.969 273.711C203.676 259.43 206.963 243.469 211.021 228.047C229.042 159.538 289.778 111.6 360.337 112.207C383.347 112.405 406.456 115.51 429.287 118.856C461.482 123.575 493.35 134.464 525.77 119.636C528.266 118.493 534.77 120.59 535.601 122.685C536.691 125.445 535.095 130.943 532.709 133.038C528.678 136.566 523.301 139.979 518.167 140.561C502.455 142.334 486.37 144.832 470.828 143.213C443.072 140.328 415.704 133.883 387.997 130.322C355.732 126.169 324.592 129.431 295.25 145.869C254.544 168.668 234.027 204.924 222.676 248.26C219.053 262.106 215.475 276.266 209.373 289.087C199.8 309.205 185.021 324.852 161.769 329.191C143.885 332.524 125.854 335.066 107.875 337.86C89.7461 340.677 82.3212 348.761 83.6709 366.804C85.4526 390.685 88.1625 414.504 90.7921 438.311C91.3968 443.779 91.61 450.679 94.9095 454.182C101.629 461.313 111.308 472.47 118.007 471.359C130.977 469.212 123.804 455.995 122.789 447.326C120.376 426.718 116.429 406.246 114.99 385.589C114.613 380.159 121.122 374.236 124.471 368.54C129.45 372.703 135.355 376.193 139.089 381.278C141.644 384.755 141.31 390.438 142.017 395.17C146.147 422.809 149.909 450.504 154.354 478.094C163.189 532.981 179.77 585.24 208.908 632.97C278.783 747.42 429.43 769.926 530.148 681.352C576.549 640.534 609.79 590.28 637.269 535.631C648.391 513.518 659.502 491.354 672.033 470.037C674.672 465.551 683.458 464.682 689.415 462.141C690.989 468.333 693.733 474.528 693.727 480.721C693.727 485.03 690.018 489.369 687.84 493.626C678.723 511.386 669.279 528.98 660.634 546.969C658.852 550.678 658.162 557.454 660.293 559.826C662.61 562.419 669.984 563.576 673.092 561.785C681.764 556.773 692.434 551.579 696.834 543.482C709.361 520.396 720.12 496.207 729.705 471.722C736.403 454.608 731.474 444.103 713.804 437.94C691.5 430.163 682.123 410.651 680.549 392.494C676.968 351.298 657.321 320.086 630.335 291.9C608.256 268.842 584.055 247.752 562.884 223.93C551.035 210.604 542.2 194.087 534.462 177.843C530.479 169.496 529.64 157.814 543.495 150.892C545.826 156.382 548.552 160.387 549.182 164.699C552.355 186.447 563.824 203.049 579.834 217.299C591.163 227.382 602.295 237.719 613.006 248.458C648.067 283.625 682.831 319.059 696.191 369.251C696.646 370.973 699.494 372.054 702.608 374.535C706.534 368.901 710.936 364.302 713.369 358.824C733.687 313.022 745.016 264.923 746.275 214.905C747.781 154.955 727.006 103.973 681.247 64.0057C675.284 58.7962 667.918 53.6759 664.957 46.8817C660.343 36.2929 653.23 33.4055 642.94 31.9667C635.469 30.9247 628.405 26.9182 616.098 22.3583C640.93 9.17557 667.825 22.2324 683.207 -1.82133Z" fill="white"/>
<path fill-rule="evenodd" clip-rule="evenodd" d="M382.021 539.52C418.896 546.089 445.705 560.283 467.478 584.495C476.081 594.051 480.204 603.223 472.513 614.276C458.005 635.121 445.381 658.124 427.441 675.566C386.359 715.473 332.197 706.88 305.353 656.374C293.969 634.953 289.045 610.034 281.746 586.527C277.227 571.975 283.689 562.245 296.686 555.312C325.25 540.092 355.407 535.541 382.021 539.52ZM387.246 558.75C367.273 555.127 349.245 556.329 332.368 560.101C298.164 567.74 292.802 580.173 305.209 613.568C309.412 624.881 315.637 628.944 326.984 624.737C359.852 612.553 389.73 618.042 416.816 639.958C425.427 646.93 433.005 645.434 439.342 636.903C443.135 631.786 446.729 626.456 449.805 620.885C459.378 603.54 459.584 597.103 443.932 586.133C425.978 573.535 407.223 562.378 387.246 558.75ZM370.186 634.865C358.629 636.687 347.355 637.175 336.943 640.419C323.218 644.696 321.98 652.299 331.449 663.673C348.023 683.579 379.955 688.274 401.02 673.893C412.144 666.301 413.183 659.409 402.111 651.511C392.605 644.716 381.266 640.501 370.186 634.865Z" fill="white"/>
<path fill-rule="evenodd" clip-rule="evenodd" d="M340.889 384.767C335.233 382.562 329.429 381.26 324.667 378.284C302.946 364.7 280.915 360.243 257.054 373.012C253.783 374.761 248.655 373.037 244.384 372.92C245.307 368.681 244.841 363.167 247.376 360.398C269.168 336.57 329.792 347.492 342.806 377.324C343.293 378.434 342.112 380.266 340.889 384.767Z" fill="white"/>
<path fill-rule="evenodd" clip-rule="evenodd" d="M473.616 402.725C478.197 398.481 482.107 392.887 487.475 390.235C509.948 379.132 547.664 386.437 564.826 404.72C568.005 408.101 570.963 412.261 572.303 416.597C573.245 419.638 572.397 425.163 570.279 426.665C568.2 428.139 562.888 426.909 560.08 425.144C550.885 419.358 542.921 409.611 533.103 407.308C519.885 404.201 505.375 406.522 491.411 406.678C486.378 406.738 481.355 407.265 476.328 407.578C475.419 405.961 474.52 404.341 473.616 402.725Z" fill="white"/>
<path fill-rule="evenodd" clip-rule="evenodd" d="M377.379 476.345C387.982 450.688 392.175 422.569 409.685 399.221C416.176 423.591 406.957 445.037 398.311 466.246C395.86 472.245 389.23 476.54 384.517 481.613C382.138 479.86 379.755 478.107 377.379 476.345Z" fill="white"/>
</g>
<defs>
<clipPath id="clip0_59_888">
<rect width="710.058" height="845.736" fill="white" transform="translate(137.879 -133.168) rotate(9.36044)"/>
</clipPath>
</defs>
</svg>
