<svg width="652" height="811" viewBox="0 0 652 811" fill="none" xmlns="http://www.w3.org/2000/svg">
<g clip-path="url(#clip0_68_679)">
<path fill-rule="evenodd" clip-rule="evenodd" d="M608.87 22.015C619.249 30.2763 626.676 36.1377 634.051 42.0634C684.682 82.8144 708.342 136.735 709.464 200.686C710.463 257.524 700.987 312.666 677.606 364.981C675.215 370.331 674.392 376.387 673.075 381.286C674.943 383.808 675.658 385.683 677.01 386.469C714.138 408.084 719.025 419.891 705.921 460.418C700.059 478.503 692.808 496.14 686.421 514.068C675.693 544.212 656.225 561.883 622.444 559.961C618.521 559.736 614.519 561.096 603.839 562.771C616.197 572.068 624.018 577.958 631.841 583.844C652.212 599.193 656.713 614.386 643.545 635.088C612.9 683.3 581.472 731.01 549.508 778.337C536.142 798.124 520.478 800.903 500.464 787.454C479.068 773.097 455.03 762.245 438.44 740.968C435.315 736.963 425.714 735.156 420.033 736.443C367.573 748.317 316.861 744.002 267.891 721.737C257.801 717.144 250.892 720.632 241.798 725.554C219.101 737.86 195.597 749.04 171.512 758.302C153.639 765.164 140.733 758.396 131.627 739.452C122.65 720.765 115.315 701.276 107.451 682.059C93.6724 648.423 79.755 614.833 66.4329 581.01C56.224 555.104 61.1573 543.785 86.78 531.419C95.7189 527.097 104.795 523.078 112.956 514.071C107.636 512.381 102.439 510.032 96.9966 509.079C70.8689 504.526 55.0991 488.303 49.4037 463.594C43.5754 438.346 39.3347 412.585 36.4474 386.825C33.0044 356.139 44.3913 340.979 74.7115 331.254C77.9091 330.237 81.0683 329.09 86.0113 327.409C85.1351 319.43 84.9539 311.813 83.3911 304.488C73.8996 260.099 71.2536 215.33 77.5007 170.41C82.6645 133.286 93.5579 97.729 114.27 65.9865C144.749 19.307 189.009 -7.48855 242.157 -20.84C281.121 -30.6235 320.664 -32.1238 360.707 -29.9819C410.8 -27.3064 460.963 -25.1601 511.113 -24.8353C550.057 -24.5823 588.921 -27.5662 625.751 -42.9555C631.035 -45.1584 638.337 -42.5104 644.714 -42.0996C643.988 -36.7184 642.728 -31.3563 642.634 -25.9651C642.242 -3.81033 626.15 8.0139 608.87 22.015ZM194.986 520.422C198.115 518.095 201.175 516.352 203.54 513.947C242.941 473.679 291.717 450.843 345.347 436.462C362.096 431.967 377.362 432.453 393.13 440.009C443.923 464.349 489.067 495.406 520.244 543.653C522.605 547.294 523.828 551.68 524.756 553.834C539.583 551.506 550.303 547.055 559.813 548.89C582.331 553.23 590.525 540.668 597.537 523.299C607.889 497.636 619.082 472.299 630.225 446.962C633.503 439.494 639.036 431.785 647.707 437.822C651.469 440.448 653.394 450.579 651.532 455.569C643.701 476.647 633.937 496.975 625.332 517.78C623.255 522.801 622.969 528.552 621.465 535.923C643.074 537.413 655.386 528.329 662.085 511.678C670.809 490.016 678.981 468.093 686.249 445.903C692.591 426.58 688.111 416.545 667.868 410.318C646.319 403.688 637.339 386.28 634.45 368.642C628.772 333.97 611.317 307.367 586.99 284.407C563.726 262.446 538.497 242.555 515.392 220.429C503.106 208.658 492.257 194.877 483.119 180.494C476.849 170.628 475.775 158.319 485.003 147.969C487.598 149.419 488.629 149.657 489.048 150.294C490.433 152.409 492.573 154.606 492.697 156.872C494.01 180.794 508.949 196.239 525.742 210.472C537.623 220.551 550.1 229.956 561.784 240.247C599.567 273.533 637.295 306.953 650.393 365.359C657.042 351.766 662.318 343.945 664.853 335.315C678.509 288.771 690.569 242.346 686.11 192.561C681.115 136.645 658.966 91.4483 615.163 56.3993C605.431 48.616 597.323 38.7901 585.571 26.9873C578.332 24.8351 563.807 31.9966 551.048 15.6896C566.397 13.4996 578.743 12.9422 590.364 9.73734C602.385 6.41843 614.262 1.27944 623.239 -14.2372C612.178 -12.3411 604.896 -10.7371 597.529 -9.8805C568.36 -6.50813 539.159 -0.824536 509.956 -0.73086C465.882 -0.586147 421.808 -4.80238 377.711 -6.42923C333.605 -8.06153 289.441 -9.90731 246.08 1.79485C181.409 19.2477 134.343 57.1327 113.278 121.622C90.9045 190.096 93.5627 259.397 112.937 328.131C139.426 328.884 155.94 316.99 164.266 289.825C168.815 275.004 171.206 259.482 173.988 244.168C185.016 183.521 235.223 134.93 296.101 125.011C326.511 120.059 356.496 122.456 386.58 126.693C415.845 130.813 445.024 134.335 472.597 119.024C473.515 118.516 475.581 120.087 477.112 120.692C472.4 136.518 472.077 137.041 456.486 141.416C428.199 149.354 399.854 145.766 371.435 141.93C356.911 139.972 342.237 138.943 327.602 137.995C256.061 133.352 195.391 188.359 187.128 256.811C185.088 273.73 179.45 290.584 173.102 306.53C165.784 324.904 152.136 338.46 132.281 343.459C115.736 347.618 98.8057 350.21 82.1385 353.908C65.8731 357.511 59.0603 364.076 60.6274 381.046C63.0809 407.665 67.0504 434.323 73.0114 460.351C77.2809 479.001 87.3307 483.867 108.926 482.477C104.021 458.676 98.9257 435.171 94.4412 411.558C92.7636 402.739 86.8621 390.34 99.1348 386.658C114.299 382.108 114.277 397.165 116.504 406.416C122.989 433.335 129.029 460.368 134.382 487.534C137.079 501.214 142.807 508.547 157.976 509.758C169.693 510.697 181.021 516.199 194.986 520.422ZM343.092 721.481C366.661 718.734 390.668 716.67 414.344 712.718C421.1 711.595 429.142 706.415 432.864 700.666C456.314 664.48 478.643 627.553 501.492 590.976C516.927 566.26 517.4 563.312 500.291 540.507C468.802 498.518 426.521 470.744 378.713 450.803C373.499 448.629 366.741 447.959 361.213 449.095C307.805 460.116 259.125 480.712 219.07 519.235C206.877 530.959 204.24 541.755 211.098 558.029C228.523 599.376 243.439 641.788 260.483 683.296C263.368 690.323 270.873 697.587 277.957 700.343C298.727 708.432 320.36 714.284 343.092 721.481ZM191.136 723.512C200.477 720.484 206.347 719.105 211.79 716.733C232.042 707.905 240.393 693.326 232.733 673.14C217.125 632.024 200.208 591.35 182.388 551.13C174.757 533.908 161.552 529.278 143.763 534.264C135.77 536.492 128.311 540.648 117.94 545.072C142.597 605.187 166.366 663.123 191.136 723.512ZM597.821 593.369C566.451 565.398 549.301 563.792 532.283 587.973C508.01 622.495 485.042 657.998 462.819 693.882C450.638 713.543 455.601 729.935 474.763 742.632C479.635 745.859 485.238 747.974 493.384 752.038C528.296 698.995 562.697 646.738 597.821 593.369ZM174.352 728.423C172.938 723.099 172.147 717.978 170.25 713.31C150.775 665.234 131.119 617.22 111.486 569.207C110.182 566.01 109.414 561.797 106.975 560.065C103.357 557.485 97.5803 554.444 94.3525 555.727C90.8173 557.132 87.7541 562.991 87.0599 567.322C86.4629 571.075 89.2819 575.477 90.9171 579.459C109.911 625.858 128.948 672.242 148.067 718.598C149.703 722.566 151.509 726.69 154.183 729.964C159.639 736.629 165.891 736.122 174.352 728.423ZM506.759 760.838C520.665 774.16 528.164 768.765 534.77 758.739C550.892 734.27 567.084 709.839 583.137 685.321C595.885 665.858 608.508 646.303 621.154 626.756C627.899 616.337 628.722 607.593 611.181 602.037C575.236 653.387 541.312 706.683 506.759 760.838Z" fill="white"/>
<path fill-rule="evenodd" clip-rule="evenodd" d="M536.02 323.639C512.764 333.157 461.283 327.29 448.689 315.027C467.035 307.702 513.192 311.639 536.02 323.639Z" fill="white"/>
<path fill-rule="evenodd" clip-rule="evenodd" d="M286.436 364.309C284.044 372.837 288.057 387.055 272.161 389.215C262.5 390.53 259.145 381.046 262.047 359.595C263.356 349.932 261.288 337.159 275.827 335.413C284.828 334.33 288.275 343.767 286.436 364.309Z" fill="white"/>
<path fill-rule="evenodd" clip-rule="evenodd" d="M468.456 380.113C469.302 375.602 469.284 369.221 471.849 364.123C473.77 360.289 480.008 355.037 482.539 355.862C487.123 357.376 493.354 362.757 493.602 366.85C494.272 377.692 493.216 388.997 490.538 399.53C489.503 403.611 482.04 408.819 477.886 408.498C474.231 408.22 469.812 401.396 468.155 396.631C466.58 392.169 468.193 386.592 468.456 380.113Z" fill="white"/>
<path fill-rule="evenodd" clip-rule="evenodd" d="M316.685 303.037C299.243 312.047 249.843 307.35 233.947 295.167C251.785 286.172 300.612 290.818 316.685 303.037Z" fill="white"/>
<path fill-rule="evenodd" clip-rule="evenodd" d="M366.343 487.261C409.784 491.431 440.937 528.227 437.217 570.933C433.425 614.537 394.626 646.931 351.229 642.729C309.32 638.675 276.84 599.967 280.32 558.214C283.992 514.136 321.762 482.978 366.343 487.261ZM351.563 627.798C386.854 631.889 418.519 606.228 422.119 570.616C425.56 536.563 400.251 505.896 365.71 502.279C330.308 498.565 299.486 522.044 295.066 556.099C290.62 590.369 316.953 623.782 351.563 627.798Z" fill="white"/>
<path fill-rule="evenodd" clip-rule="evenodd" d="M395.969 568.112C393.952 587.86 376.365 602.649 356.51 601.264C335.66 599.811 319.868 581.318 321.832 560.636C323.73 540.589 344.121 524.273 363.796 527.041C382.213 529.641 397.857 549.612 395.969 568.112ZM357.363 586.513C368.801 587.277 379.126 578.482 380.263 567.011C381.426 555.172 373.339 545.468 361.212 544.138C348.486 542.747 336.83 552.351 336.657 564.368C336.506 575.242 346.362 585.763 357.363 586.513Z" fill="white"/>
</g>
<defs>
<clipPath id="clip0_68_679">
<rect width="679.045" height="846.495" fill="white" transform="translate(81.1733 -96.853) rotate(5.50012)"/>
</clipPath>
</defs>
</svg>
