<svg width="679" height="816" viewBox="0 0 679 816" fill="none" xmlns="http://www.w3.org/2000/svg">
<g clip-path="url(#clip0_62_406)">
<path d="M759.285 265.902C753.78 307.482 741.996 347.24 723.975 385.061C717.613 398.409 717.476 407.348 732.443 416.425C755.73 430.54 761.711 452.416 751.573 479.116C742.511 503.003 731.849 526.299 721.423 549.648C709.323 576.733 687.437 590.267 658.423 588.682C642.043 587.786 633.919 594.078 626.103 607.146C598.36 653.546 564.885 695.344 519.245 725.471C403.017 802.209 258.767 770.514 184.486 652.766C161.632 616.529 145.763 577.384 134.803 536.226C131.164 522.55 125.343 514.548 110.456 510.909C79.0135 503.237 62.1468 481.63 58.75 449.353C56.4893 427.876 53.6089 406.456 51.2049 384.998C47.2993 350.125 58.5195 332.247 92.2493 322.87C104.344 319.502 107.746 314.124 105.199 302.424C92.88 245.789 96.2569 189.163 109.469 133.447C127.847 55.9436 172.363 -0.195689 249.42 -27.2691C291.557 -42.0728 335.06 -47.0727 379.409 -43.6922C438.423 -39.2078 497.322 -33.1334 556.366 -29.1593C600.376 -26.2006 644.304 -26.8886 686.78 -42.1973C692.362 -44.2026 699.818 -41.01 706.4 -40.2277C705.621 -34.3499 705.026 -28.4313 704.001 -22.5981C700.991 -5.52141 693.158 8.16997 678.156 18.0788C675.687 19.7024 677.215 28.6703 678.359 33.9339C678.91 36.4389 682.827 38.2441 685.267 40.3C749.702 94.7436 770.798 165.276 761.958 246.899C761.284 253.263 760.195 259.582 759.285 265.902ZM669.894 -4.64617C666.163 -6.4297 664.664 -7.83226 663.392 -7.6544C578.428 4.29133 494.204 -5.95804 409.744 -14.62C376.564 -18.0308 342.35 -18.5799 309.299 -14.6489C225.699 -4.70753 166.83 38.9579 139.808 120.816C120.249 180.069 119.786 240.294 131.849 301.012C136.563 324.751 146.961 329.79 165.229 314.503C175.198 306.158 183.321 294.109 188.635 282.117C195.044 267.66 197.987 251.598 201.716 236.05C218.273 167.003 278.09 117.635 348.817 116.697C371.882 116.391 395.11 118.996 418.065 121.848C450.43 125.871 482.612 136.084 514.777 120.515C517.253 119.32 523.818 121.279 524.697 123.355C525.85 126.096 524.371 131.641 522.026 133.792C518.064 137.411 512.75 140.954 507.617 141.65C491.91 143.766 475.849 146.628 460.238 145.341C432.357 143.063 404.787 137.2 376.941 134.238C344.514 130.784 313.378 134.736 284.331 151.855C244.037 175.59 224.271 212.371 213.846 256.045C210.518 270.005 207.244 284.273 201.41 297.249C192.257 317.62 177.79 333.623 154.581 338.48C136.731 342.213 118.717 345.155 100.76 348.348C82.6532 351.564 75.3894 359.828 77.1383 377.879C79.4482 401.77 82.6871 425.58 85.8444 449.383C86.5712 454.845 86.9357 461.759 90.3194 465.197C97.2105 472.191 107.156 483.164 113.844 481.903C126.797 479.468 119.317 466.381 118.11 457.716C115.239 437.118 110.834 416.689 108.938 396.026C108.44 390.592 114.835 384.51 118.065 378.734C123.146 382.796 129.141 386.164 132.994 391.178C135.632 394.606 135.422 400.308 136.234 405.034C140.98 432.641 145.358 460.311 150.419 487.856C160.479 542.664 178.244 594.668 208.494 641.859C281.035 755.021 432.508 774.266 531.503 683.305C577.11 641.381 609.325 590.298 635.656 534.927C646.317 512.524 656.965 490.076 669.061 468.436C671.612 463.883 680.394 462.819 686.308 460.142C688.021 466.312 690.912 472.461 691.043 478.667C691.136 482.99 687.515 487.415 685.425 491.728C676.683 509.725 667.599 527.563 659.336 545.774C657.627 549.53 657.085 556.334 659.272 558.665C661.647 561.211 669.067 562.21 672.142 560.348C680.723 555.139 691.303 549.696 695.534 541.491C707.582 518.077 717.833 493.606 726.902 468.856C733.239 451.559 728.068 441.145 710.224 435.357C687.7 428.048 677.874 408.706 675.899 390.541C671.404 349.342 651.03 318.491 623.366 290.838C600.732 268.215 576.014 247.612 554.274 224.204C542.107 211.11 532.889 194.757 524.776 178.649C520.602 170.372 519.505 158.684 533.238 151.444C535.695 156.894 538.514 160.848 539.241 165.155C542.903 186.88 554.757 203.259 571.115 217.193C582.696 227.044 594.074 237.158 605.048 247.69C640.959 282.162 676.583 316.903 691.069 366.911C691.563 368.627 694.441 369.648 697.616 372.061C701.428 366.329 705.738 361.624 708.061 356.082C727.413 309.739 737.716 261.292 737.88 211.143C738.073 151.034 716.138 100.402 669.395 61.3541C663.306 56.2644 655.811 51.2949 652.695 44.5468C647.832 34.0411 640.646 31.2995 630.296 30.0873C622.791 29.2076 615.623 25.3475 603.184 21.0472C627.766 7.30029 655.007 19.7948 669.894 -4.64617Z" fill="white"/>
<path d="M344.119 328.413C338.403 326.323 332.556 325.15 327.719 322.272C305.652 309.132 283.474 305.152 259.841 318.472C256.601 320.296 251.424 318.68 247.142 318.657C247.973 314.388 247.385 308.874 249.866 306.039C271.182 281.684 332.179 291.299 345.877 320.908C346.389 322.015 345.246 323.876 344.119 328.413Z" fill="white"/>
<path d="M477.531 343.499C482.03 339.146 485.825 333.455 491.147 330.68C513.426 319.061 551.385 325.555 568.986 343.5C572.246 346.818 575.302 350.922 576.741 355.233C577.751 358.264 577.023 363.819 574.933 365.371C572.882 366.894 567.532 365.777 564.679 364.065C555.336 358.469 547.14 348.881 537.251 346.783C523.935 343.965 509.449 346.604 495.453 347.066C490.41 347.241 485.388 347.875 480.362 348.299C479.415 346.704 478.473 345.099 477.531 343.499Z" fill="white"/>
<path d="M501.42 395.749C501.678 394.825 501.372 390.807 503.946 388.101C506.681 385.225 513.211 381.161 516.202 381.936C521.804 383.394 529.355 387.906 530.149 391.261C531.697 397.737 530.883 404.847 527.596 410.616C525.546 414.206 517.485 417.945 511.529 417.844C501.278 417.675 500.304 411.15 500.051 405.872C499.938 403.327 500.695 400.839 501.42 395.749Z" fill="white"/>
<path d="M314.154 372.454C312.04 379.156 314.681 388.962 297.774 388.597C287.975 388.385 284.059 381.533 285.775 368.494C286.317 364.383 286.373 359.698 289.407 356.592C292.147 353.784 299.054 350.817 303.36 351.562C307.549 352.275 312.13 357.392 314.016 360.985C315.784 364.353 314.249 368.245 314.154 372.454Z" fill="white"/>
<path d="M373.891 481.219C383.955 455.276 387.539 427.012 404.576 403.226C411.616 427.505 402.848 449.192 394.648 470.64C392.323 476.706 385.772 481.16 381.161 486.341C378.739 484.637 376.312 482.933 373.891 481.219Z" fill="white"/>
<path d="M432.485 623.674L310.023 606.231C304.771 605.483 298.36 601.759 295.26 597.455C287.462 586.638 307.481 586.456 312.733 587.204L420.304 605.559C425.557 606.307 439.429 611.045 443.359 615.516C446.86 619.494 445.172 625.481 432.485 623.674Z" fill="white"/>
</g>
<defs>
<clipPath id="clip0_62_406">
<rect width="711.793" height="847.702" fill="white" transform="translate(120.482 -124.314) rotate(8.10644)"/>
</clipPath>
</defs>
</svg>
