<svg width="698" height="811" viewBox="0 0 698 811" fill="none" xmlns="http://www.w3.org/2000/svg">
<g clip-path="url(#clip0_60_901)">
<path fill-rule="evenodd" clip-rule="evenodd" d="M764.952 254.375C759.637 296.489 747.952 336.796 729.938 375.181C723.582 388.722 723.496 397.775 738.696 406.87C762.346 421.01 768.529 443.112 758.435 470.2C749.409 494.43 738.76 518.07 728.35 541.762C716.264 569.246 694.208 583.076 664.835 581.647C648.255 580.838 640.072 587.256 632.241 600.528C604.442 647.653 570.821 690.152 524.823 720.917C407.673 799.28 261.516 768.077 185.643 649.362C162.299 612.827 146.006 573.307 134.667 531.72C130.903 517.903 124.965 509.84 109.878 506.246C78.0157 498.672 60.8183 476.908 57.187 444.263C54.7704 422.542 51.7263 400.887 49.1653 379.18C45.0036 343.911 56.2498 325.75 90.3247 316.057C102.543 312.58 105.952 307.117 103.305 295.292C90.4989 238.05 93.5756 180.723 106.611 124.252C124.741 45.7105 169.45 -11.3729 247.26 -39.2377C289.811 -54.4742 333.802 -59.7972 378.698 -56.6489C438.442 -52.4626 498.079 -46.6761 557.849 -43.0112C602.401 -40.2781 646.848 -41.2448 689.737 -56.9896C695.374 -59.0576 702.938 -55.8668 709.603 -55.115C708.845 -49.1624 708.284 -43.1732 707.281 -37.2589C704.338 -19.9586 696.494 -6.05527 681.373 4.05855C678.884 5.72141 680.49 14.7838 681.674 20.1031C682.241 22.6343 686.221 24.4382 688.701 26.5088C754.231 81.2175 776.002 152.47 767.547 235.129C766.899 241.572 765.835 247.974 764.952 254.375ZM672.876 -18.8849C669.09 -20.6673 667.565 -22.0776 666.278 -21.8899C580.375 -9.28691 495.091 -19.1448 409.569 -27.4058C375.973 -30.6522 341.349 -31.0059 307.928 -26.8278C223.393 -16.2614 164.086 28.285 137.234 111.291C117.798 171.374 117.692 232.326 130.263 293.702C135.177 317.697 145.728 322.738 164.122 307.152C174.159 298.652 182.307 286.405 187.613 274.236C194.01 259.566 196.892 243.288 200.571 227.536C216.911 157.559 277.143 107.235 348.706 105.858C372.044 105.409 395.564 107.905 418.81 110.653C451.589 114.529 484.21 124.67 516.665 108.719C519.164 107.489 525.819 109.432 526.72 111.533C527.903 114.3 526.44 119.921 524.08 122.112C520.092 125.803 514.736 129.416 509.547 130.151C493.664 132.393 477.425 135.38 461.62 134.177C433.394 132.036 405.461 126.274 377.265 123.445C344.432 120.145 312.948 124.332 283.659 141.829C243.028 166.097 223.247 203.44 212.961 247.703C209.678 261.845 206.45 276.304 200.625 289.477C191.485 310.148 176.942 326.43 153.486 331.487C135.446 335.372 117.236 338.459 99.0834 341.799C80.7801 345.168 73.4796 353.575 75.3577 371.832C77.8388 395.997 81.2594 420.073 84.598 444.139C85.3656 449.666 85.7767 456.657 89.2213 460.115C96.2359 467.157 106.366 478.197 113.127 476.881C126.219 474.338 118.571 461.139 117.298 452.377C114.268 431.548 109.688 410.901 107.646 389.996C107.11 384.5 113.543 378.31 116.778 372.44C121.944 376.521 128.031 379.893 131.96 384.944C134.65 388.398 134.471 394.169 135.321 398.947C140.29 426.857 144.887 454.833 150.173 482.683C160.682 538.09 178.971 590.611 209.864 638.187C283.95 752.266 437.341 770.832 536.968 678.174C582.866 635.475 615.153 583.578 641.473 527.388C652.126 504.651 662.767 481.864 674.871 459.894C677.421 455.271 686.305 454.141 692.274 451.397C694.045 457.631 697.002 463.835 697.171 470.115C697.292 474.484 693.654 478.989 691.566 483.367C682.823 501.633 673.743 519.74 665.485 538.225C663.783 542.037 663.275 548.926 665.503 551.272C667.926 553.835 675.435 554.8 678.536 552.897C687.188 547.569 697.861 542.002 702.094 533.667C714.144 509.904 724.371 485.072 733.398 459.974C739.706 442.431 734.411 431.918 716.321 426.168C693.484 418.912 683.426 399.392 681.317 381.025C676.522 339.354 655.719 308.26 627.559 280.441C604.52 257.684 579.384 236.982 557.244 213.425C544.853 200.246 535.428 183.748 527.122 167.495C522.848 159.143 521.668 147.322 535.521 139.911C538.04 145.413 540.917 149.397 541.678 153.751C545.509 175.715 557.608 192.224 574.244 206.222C586.017 216.126 597.596 226.293 608.76 236.88C645.305 271.549 681.557 306.497 696.521 357.015C697.031 358.748 699.95 359.765 703.177 362.192C706.999 356.368 711.333 351.58 713.645 345.957C732.954 298.94 743.083 249.847 742.947 199.094C742.782 138.262 720.276 87.1533 672.747 47.919C666.554 42.8049 658.94 37.821 655.746 31.0154C650.768 20.4086 643.475 17.6816 632.999 16.5133C625.395 15.6677 618.119 11.8046 605.51 7.52845C630.318 -6.54006 657.958 5.94 672.876 -18.8849Z" fill="white"/>
<path fill-rule="evenodd" clip-rule="evenodd" d="M346.539 310.513C340.742 308.436 334.819 307.28 329.907 304.397C307.498 291.237 285.032 287.339 261.199 300.961C257.931 302.827 252.683 301.223 248.349 301.226C249.164 296.901 248.536 291.323 251.029 288.444C272.453 263.667 334.234 273.029 348.273 302.912C348.798 304.024 347.652 305.914 346.539 310.513Z" fill="white"/>
<path fill-rule="evenodd" clip-rule="evenodd" d="M481.631 324.973C486.156 320.541 489.963 314.758 495.331 311.918C517.805 300.024 556.255 306.367 574.174 324.421C577.493 327.759 580.61 331.894 582.091 336.253C583.132 339.31 582.429 344.936 580.323 346.519C578.256 348.073 572.836 346.975 569.938 345.265C560.451 339.657 552.1 329.999 542.08 327.941C528.59 325.164 513.942 327.927 499.786 328.48C494.684 328.682 489.606 329.359 484.518 329.818C483.551 328.204 482.593 326.587 481.631 324.973Z" fill="white"/>
<path fill-rule="evenodd" clip-rule="evenodd" d="M505.563 381.778C505.893 380.297 505.859 374.026 508.683 369.552C511.681 364.803 518.644 357.866 521.648 358.83C527.276 360.638 534.682 367.076 535.26 372.268C536.389 382.306 535.059 393.535 531.293 402.871C528.945 408.68 520.44 415.235 514.354 415.593C503.882 416.202 503.348 406.044 503.459 397.78C503.517 393.798 504.466 389.825 505.563 381.778Z" fill="white"/>
<path fill-rule="evenodd" clip-rule="evenodd" d="M315.778 360.433C313.186 370.842 315.255 385.611 298 386.399C288 386.861 284.439 376.698 287.032 356.636C287.85 350.314 288.209 343.149 291.509 338.166C294.489 333.66 301.739 328.573 306.092 329.363C310.326 330.127 314.679 337.581 316.375 342.921C317.965 347.923 316.144 354.005 315.778 360.433Z" fill="white"/>
<path fill-rule="evenodd" clip-rule="evenodd" d="M376.271 474.613C386.298 448.296 389.755 419.666 406.851 395.496C414.122 420.024 405.379 442.03 397.211 463.781C394.895 469.933 388.293 474.475 383.657 479.752C381.196 478.042 378.73 476.332 376.271 474.613Z" fill="white"/>
<path d="M283.024 576.95C283.103 576.735 286.018 578.35 290.815 581.035C295.654 583.698 302.421 587.477 310.458 591.591C318.502 595.691 327.837 600.11 337.893 603.851C347.943 607.602 358.726 610.618 369.576 612.063L378.5 613.266C381.35 613.605 384.19 613.938 387.005 614.278C389.817 614.706 392.394 614.635 395.051 614.87C396.363 614.926 397.703 615.104 398.975 615.066C400.23 614.963 401.494 614.944 402.747 614.898C407.835 615.048 412.554 613.841 417.313 613.312C419.641 612.795 421.862 612.018 424.096 611.474C426.3 610.818 428.584 610.52 430.588 609.606C434.66 607.997 438.522 606.556 442.061 605.326C445.495 603.787 448.487 602.438 450.954 601.331C455.987 599.113 459.128 597.995 459.128 597.995C459.128 597.995 457.411 600.691 453.933 605.144C452.162 607.331 450.112 610.168 447.396 613.061C444.51 615.764 441.136 618.769 437.304 622.001C433.345 625.019 428.499 627.734 423.341 630.609C417.823 632.712 411.93 635.403 405.383 636.306C403.757 636.61 402.118 636.926 400.462 637.235C398.809 637.476 397.175 637.479 395.509 637.605C392.206 637.783 388.736 638.11 385.493 637.815C382.28 637.622 378.676 637.602 375.707 637.207C372.565 636.852 369.409 636.495 366.258 636.144C359.447 635.132 352.756 633.557 346.457 631.314C340.139 629.132 334.199 626.374 328.748 623.304C317.825 617.177 308.898 609.796 302.089 602.831C295.256 595.863 290.519 589.289 287.513 584.516C284.473 579.788 283.152 576.771 283.024 576.95Z" fill="white"/>
</g>
<defs>
<clipPath id="clip0_60_901">
<rect width="720.277" height="857.907" fill="white" transform="translate(116.205 -136.67) rotate(7.7651)"/>
</clipPath>
</defs>
</svg>
