<svg width="667" height="849" viewBox="0 0 667 849" fill="none" xmlns="http://www.w3.org/2000/svg">
<g clip-path="url(#clip0_66_610)">
<path fill-rule="evenodd" clip-rule="evenodd" d="M660.319 -39.3109C656.28 -25.1031 655.347 -12.8068 649.484 -3.67381C643.355 5.86397 632.478 12.36 622.501 21.2269C627.506 25.6642 631.256 29.5596 635.558 32.7173C700.829 80.6633 725.064 147.123 721.777 225.506C719.712 274.765 707.741 321.89 687.868 367.019C685.345 372.762 683.641 378.866 681.827 384.018C683.549 386.494 684.15 388.387 685.372 388.972C723.594 407.206 730.751 425.009 715.523 463.334C708.44 481.168 701.944 499.227 694.955 517.089C681.267 552.03 663.39 563.476 625.192 562.098C622.823 562.016 620.442 562.351 615.727 562.622C612.166 568.148 607.642 574.514 603.793 581.271C578.222 626.148 547.437 666.548 506.46 698.78C501.014 703.069 496.426 711.453 495.794 718.335C492.664 752.657 474.24 776.324 445.715 792.8C385.56 827.544 295.473 818.518 242.834 772.913C217.183 750.689 202.711 723.75 207.163 688.441C207.978 682.034 206.675 673.249 202.738 668.696C165.76 626.041 143.636 575.922 127.201 522.749C126.04 518.968 124.08 515.443 122.786 512.491C120.742 511.084 119.542 509.668 118.121 509.374C71.6182 499.762 61.1188 489.17 53.0858 442.817C49.9459 424.701 47.4034 406.481 44.4581 388.33C38.8786 353.932 51.4665 335.175 85.3609 327.489C87.6451 326.967 89.8768 326.28 95.0838 324.874C93.978 316.733 93.1968 308.427 91.6886 300.262C79.3281 233.02 79.4215 166.528 104.454 101.766C130.085 35.475 179.42 -4.38867 246.812 -22.7539C290.443 -34.65 335.144 -37.213 380.091 -32.8429C440.668 -26.9555 501.347 -21.5043 562.074 -28.2983C587.995 -31.1979 613.524 -38.1182 639.003 -44.1596C648.134 -46.3156 656.18 -49.675 660.319 -39.3109ZM252.425 601.432C217.813 547.055 193.454 490.598 173.226 432.255C142.977 344.998 198.47 264.243 290.433 260.858C362.105 258.224 432.193 267.353 502.245 282.556C588.54 301.287 631.014 398.127 581.446 476.667C551.039 524.828 519.086 571.621 480.182 613.412C476.156 617.745 470.942 624.74 471.926 629.27C475.552 646.041 481.54 662.297 487.373 681.092C515.351 664.148 533.056 642.672 550.24 620.704C585.676 575.391 606.97 522.56 629.788 470.55C632.684 463.958 635.315 457.24 638.53 450.797C642.078 443.673 645.753 434.723 655.935 438.664C666.279 442.649 663.276 451.269 660.027 459.002C656.613 467.104 653.092 475.167 649.651 483.266C642.295 500.596 634.968 517.925 627.391 535.809C651.159 539.994 662.405 534.459 670.898 514.055C680.125 491.91 688.416 469.367 696.441 446.75C702.602 429.406 697.688 417.345 680.43 413.738C655.606 408.534 647.561 388.393 644.196 369.714C639.45 343.261 630.003 320.343 612.291 301.31C592.71 280.27 571.382 260.847 550.491 241.061C535.99 227.328 520.331 214.781 506.376 200.543C494.876 188.803 488.707 173.775 489.683 157.01C489.896 153.226 494.41 149.689 497.334 145.483C505.541 163.388 510.738 179.253 519.616 192.686C526.455 203.037 537.921 210.334 547.321 218.995C570.252 240.127 593.952 260.499 615.876 282.623C635.182 302.113 650.126 324.898 656.202 352.464C656.807 355.242 658.789 357.717 660.117 360.31C662.701 359.06 664.575 358.765 665.288 357.699C667.495 354.381 669.737 350.949 671.123 347.246C686.997 305.042 698.399 261.813 698.883 216.386C699.61 148.159 676.645 91.1884 619.898 49.9356C612.74 44.7315 608.357 35.7193 601.928 27.4782C574.447 25.6241 574.447 25.6241 566.758 13.4521C592.382 12.262 618.001 11.9976 636.755 -14.3058C613.01 -10.8092 592.806 -6.90673 572.426 -4.99636C508.373 0.981754 444.547 -3.31644 380.688 -9.46131C332.562 -14.0874 284.654 -11.6903 238.318 4.09112C188.922 20.9183 152.095 52.0562 130.497 100.215C103.582 160.236 103.098 222.838 112.712 286.295C114.709 299.528 118.58 312.475 121.467 325.049C146.645 326.144 161.907 317.201 170.258 293.524C177.417 273.246 181.185 251.8 186.91 230.993C201.697 177.248 235.987 141.574 289.451 126.819C309.027 121.417 330.466 121.424 351.058 121.477C368.552 121.519 386.044 125.113 403.528 127.235C432.786 130.776 461.896 133.206 489.392 115.225C489.778 121.67 490.039 127.893 487.486 129.416C478.813 134.613 469.407 140.752 459.769 141.77C442.412 143.608 424.646 142.834 407.149 141.627C385.605 140.143 364.228 135.92 342.691 134.944C253.435 130.926 203.492 195.324 196.656 252.355C195.229 264.222 192.524 276.109 188.821 287.48C181.137 311.11 168.641 331.906 143.45 339.719C125.755 345.208 107.106 347.687 88.7867 351.015C74.33 353.638 65.0094 361.267 66.6161 374.413C70.1034 402.963 74.3361 431.549 80.7194 459.558C84.6182 476.655 96.7959 482.495 116 480.665C113.674 468.067 111.467 455.589 109.03 443.161C105.817 426.671 101.767 410.298 99.5968 393.672C99.0855 389.825 104.03 382.61 107.712 381.63C111.159 380.718 117.622 385.058 120.278 388.824C123.314 393.133 123.9 399.311 125.051 404.775C129.169 424.343 133.087 443.951 137.066 463.552C149.57 525.233 168.701 584.271 206.527 635.71C210.505 641.109 215.738 645.594 222.68 652.935C233.49 634.228 242.543 618.538 252.425 601.432ZM263.883 587.615C333.554 559.148 399.136 566.256 461.909 608.838C468.281 602.654 474.163 597.493 479.418 591.745C515.191 552.592 544.949 509.045 571.798 463.479C611.748 395.691 575.308 313.4 498.48 297.133C485.961 294.482 473.481 291.598 460.885 289.325C435.731 284.784 410.665 278.647 385.281 276.729C354.241 274.375 322.931 275.421 291.733 275.456C213.224 275.535 160.275 349.195 186.125 423.254C197.182 454.92 209.382 486.287 223.162 516.844C234.184 541.287 245.09 566.295 263.883 587.615ZM364.816 590.393C340.526 587.623 317.012 590.167 293.712 597.303C279.154 601.768 268.379 609.555 261.44 623.508C253.637 639.204 244.527 654.246 235.968 669.565C220.154 697.872 223.355 724.544 245.145 748.782C265.172 771.056 290.93 783.61 319.27 790.158C364.615 800.644 408.354 796.56 447.285 768.507C473.657 749.49 480.658 726.295 471.173 694.948C467.708 683.501 462.018 672.354 460.739 660.695C456.509 622.148 429.111 607.722 397.49 597.5C386.932 594.088 375.718 592.701 364.816 590.393Z" fill="white"/>
<path fill-rule="evenodd" clip-rule="evenodd" d="M238.879 376.257C242.061 348.67 262.573 330.33 286.673 333.531C309.024 336.502 324.963 359.462 322.544 385.188C320.027 411.895 298.676 431.753 275.237 429.17C251.132 426.508 235.678 404.018 238.879 376.257ZM306.658 384.556C308.826 365.752 298.924 349.489 284.261 347.752C270.041 346.058 255.072 360.519 252.933 378.027C250.817 395.37 261.947 412.819 276.289 414.648C291.59 416.591 304.431 403.865 306.658 384.556Z" fill="white"/>
<path fill-rule="evenodd" clip-rule="evenodd" d="M529.653 407.94C526.596 435.438 505.942 454.028 481.954 450.909C459.133 447.935 443.513 425.744 445.804 399.553C448.149 372.893 469.39 352.842 492.788 355.239C516.754 357.681 532.713 380.499 529.653 407.94ZM515.037 406.814C517.328 389.317 506.503 371.663 492.258 369.626C477.858 367.563 463.515 381.42 461.196 399.626C458.878 417.864 469.008 434.431 483.719 436.466C498.635 438.532 512.615 425.293 515.037 406.814Z" fill="white"/>
<path fill-rule="evenodd" clip-rule="evenodd" d="M339.866 773.27C321.415 771.707 300.594 764.643 282.655 749.79C245.32 718.863 248.828 670.571 290.346 645.839C330.239 622.08 391.133 629.072 424.553 661.251C457.886 693.367 452.017 738.934 411.608 761.758C392.012 772.832 371.31 776.51 339.866 773.27ZM338.965 759.607C368.766 762.669 393.248 756.993 409.485 745.477C434.858 727.458 438.21 698.046 417.498 675.244C388.075 642.852 327.251 636.608 292.192 662.366C267.63 680.41 264.283 708.058 284.539 730.77C300.683 748.87 321.812 757.483 338.965 759.607Z" fill="white"/>
<path fill-rule="evenodd" clip-rule="evenodd" d="M414.094 714.815C406.843 715.573 399.358 717.879 392.381 716.836C357.747 711.626 321.677 714.433 288.299 701.941C287.954 699.787 287.613 697.638 287.268 695.48C292.162 693.38 297.226 689.133 301.903 689.533C335.219 692.365 368.488 695.858 401.667 699.956C406.596 700.564 410.993 705.473 415.623 708.39C415.123 710.534 414.604 712.672 414.094 714.815Z" fill="white"/>
<path fill-rule="evenodd" clip-rule="evenodd" d="M390.232 669.493C386.476 688.66 375.101 685.045 366.849 683.291C350.848 679.896 330.789 687.063 315.543 665.293C343.722 658.456 365.929 664.381 390.232 669.493Z" fill="white"/>
<path fill-rule="evenodd" clip-rule="evenodd" d="M384.513 731.339C377.946 751.838 364.871 746.341 355.501 744.366C341.097 741.326 321.899 748.923 309.996 726.528C337.336 719.831 359.573 725.475 384.513 731.339Z" fill="white"/>
</g>
<defs>
<clipPath id="clip0_66_610">
<rect width="682.797" height="887.215" fill="white" transform="translate(93.312 -105.292) rotate(6.01727)"/>
</clipPath>
</defs>
</svg>
