<svg width="165" height="46" viewBox="0 0 165 46" fill="none" xmlns="http://www.w3.org/2000/svg">
<g clip-path="url(#clip0_19_227)">
<path d="M133.778 6.94504C134.282 6.43872 134.902 6.06461 135.585 5.85595C136.268 5.64729 136.992 5.61056 137.692 5.74902C138.392 5.88748 139.048 6.19685 139.6 6.64961C140.152 7.10237 140.583 7.6845 140.856 8.34426C141.129 9.00402 141.234 9.72096 141.163 10.4313C141.092 11.1417 140.847 11.8236 140.449 12.4162C140.051 13.0089 139.512 13.494 138.882 13.8285C138.251 14.1629 137.547 14.3364 136.833 14.3334H117.333M140.278 39.055C140.782 39.5614 141.402 39.9355 142.085 40.1441C142.768 40.3528 143.492 40.3895 144.192 40.2511C144.892 40.1126 145.548 39.8032 146.1 39.3505C146.652 38.8977 147.083 38.3156 147.356 37.6558C147.629 36.9961 147.734 36.2791 147.663 35.5687C147.592 34.8583 147.347 34.1765 146.949 33.5839C146.551 32.9912 146.012 32.5061 145.382 32.1716C144.751 31.8372 144.047 31.6637 143.333 31.6667H117.333M151.415 13.7484C152.045 13.1198 152.821 12.6562 153.673 12.3986C154.525 12.1409 155.427 12.0972 156.3 12.2713C157.173 12.4454 157.989 12.8319 158.677 13.3967C159.365 13.9614 159.903 14.687 160.244 15.5092C160.585 16.3314 160.718 17.225 160.631 18.1108C160.545 18.9967 160.241 19.8475 159.747 20.5881C159.253 21.3287 158.585 21.9362 157.8 22.3569C157.016 22.7775 156.14 22.9984 155.25 23H117.333" stroke="#0094FF" stroke-width="3.33333" stroke-linecap="round" stroke-linejoin="round"/>
<path d="M34 9.944C34.544 9.944 34.992 10.136 35.344 10.52C35.728 10.872 35.92 11.32 35.92 11.864V33.032C35.92 33.576 35.728 34.04 35.344 34.424C34.992 34.808 34.544 35 34 35C33.424 35 32.96 34.808 32.608 34.424C32.256 34.04 32.08 33.576 32.08 33.032V28.472L32.992 28.376C32.992 29.08 32.752 29.848 32.272 30.68C31.792 31.512 31.136 32.296 30.304 33.032C29.472 33.736 28.48 34.328 27.328 34.808C26.208 35.256 24.992 35.48 23.68 35.48C21.504 35.48 19.552 34.92 17.824 33.8C16.096 32.648 14.72 31.096 13.696 29.144C12.704 27.192 12.208 24.968 12.208 22.472C12.208 19.944 12.704 17.72 13.696 15.8C14.72 13.848 16.096 12.328 17.824 11.24C19.552 10.12 21.472 9.56 23.584 9.56C24.96 9.56 26.24 9.784 27.424 10.232C28.608 10.68 29.632 11.288 30.496 12.056C31.392 12.824 32.08 13.672 32.56 14.6C33.072 15.528 33.328 16.456 33.328 17.384L32.08 17.096V11.864C32.08 11.32 32.256 10.872 32.608 10.52C32.96 10.136 33.424 9.944 34 9.944ZM24.112 31.928C25.712 31.928 27.12 31.512 28.336 30.68C29.584 29.848 30.544 28.728 31.216 27.32C31.92 25.88 32.272 24.264 32.272 22.472C32.272 20.712 31.92 19.128 31.216 17.72C30.544 16.28 29.584 15.16 28.336 14.36C27.12 13.528 25.712 13.112 24.112 13.112C22.544 13.112 21.136 13.512 19.888 14.312C18.672 15.112 17.712 16.216 17.008 17.624C16.304 19.032 15.952 20.648 15.952 22.472C15.952 24.264 16.288 25.88 16.96 27.32C17.664 28.728 18.624 29.848 19.84 30.68C21.088 31.512 22.512 31.928 24.112 31.928ZM44.9564 35C44.4124 35 43.9484 34.808 43.5644 34.424C43.2124 34.04 43.0364 33.576 43.0364 33.032V12.104C43.0364 11.56 43.2124 11.112 43.5644 10.76C43.9484 10.376 44.4124 10.184 44.9564 10.184C45.5324 10.184 45.9964 10.376 46.3484 10.76C46.7004 11.112 46.8764 11.56 46.8764 12.104V18.44L46.3004 17.432C46.4924 16.44 46.8284 15.48 47.3084 14.552C47.8204 13.592 48.4604 12.744 49.2284 12.008C49.9964 11.24 50.8764 10.648 51.8684 10.232C52.8604 9.784 53.9484 9.56 55.1324 9.56C55.8364 9.56 56.4764 9.736 57.0524 10.088C57.6604 10.408 57.9644 10.872 57.9644 11.48C57.9644 12.152 57.7884 12.648 57.4364 12.968C57.0844 13.288 56.6844 13.448 56.2364 13.448C55.8204 13.448 55.4204 13.368 55.0364 13.208C54.6524 13.016 54.1724 12.92 53.5964 12.92C52.7964 12.92 51.9964 13.144 51.1964 13.592C50.4284 14.008 49.7084 14.616 49.0364 15.416C48.3964 16.216 47.8684 17.128 47.4524 18.152C47.0684 19.144 46.8764 20.216 46.8764 21.368V33.032C46.8764 33.576 46.6844 34.04 46.3004 34.424C45.9484 34.808 45.5004 35 44.9564 35ZM65.998 33.032C65.998 33.576 65.806 34.04 65.422 34.424C65.07 34.808 64.622 35 64.078 35C63.502 35 63.038 34.808 62.686 34.424C62.334 34.04 62.158 33.576 62.158 33.032V11.72C62.158 11.176 62.334 10.728 62.686 10.376C63.07 9.992 63.534 9.8 64.078 9.8C64.622 9.8 65.07 9.992 65.422 10.376C65.806 10.728 65.998 11.176 65.998 11.72V33.032ZM64.078 6.584C63.278 6.584 62.686 6.424 62.302 6.104C61.918 5.784 61.726 5.288 61.726 4.616V3.944C61.726 3.272 61.934 2.776 62.35 2.456C62.766 2.136 63.358 1.976 64.126 1.976C64.894 1.976 65.47 2.136 65.854 2.456C66.238 2.776 66.43 3.272 66.43 3.944V4.616C66.43 5.288 66.222 5.784 65.806 6.104C65.422 6.424 64.846 6.584 64.078 6.584ZM77.4078 36.632C77.4078 38.264 77.0398 39.656 76.3038 40.808C75.5998 41.96 74.7038 42.856 73.6158 43.496C72.5278 44.136 71.3918 44.456 70.2078 44.456C69.6638 44.456 69.2317 44.28 68.9117 43.928C68.5597 43.576 68.3837 43.16 68.3837 42.68V42.344C68.3837 41.864 68.5437 41.48 68.8637 41.192C69.1837 40.904 69.5838 40.696 70.0638 40.568C70.7998 40.376 71.4238 40.072 71.9358 39.656C72.4478 39.272 72.8478 38.744 73.1358 38.072C73.4238 37.432 73.5678 36.664 73.5678 35.768V12.104C73.5678 11.56 73.7438 11.096 74.0958 10.712C74.4798 10.328 74.9438 10.136 75.4878 10.136C76.0638 10.136 76.5278 10.328 76.8798 10.712C77.2318 11.096 77.4078 11.56 77.4078 12.104V36.632ZM75.4878 6.584C74.6878 6.584 74.0958 6.424 73.7118 6.104C73.3278 5.784 73.1358 5.288 73.1358 4.616V3.944C73.1358 3.272 73.3438 2.776 73.7598 2.456C74.1758 2.136 74.7678 1.976 75.5358 1.976C76.3038 1.976 76.8798 2.136 77.2638 2.456C77.6478 2.776 77.8398 3.272 77.8398 3.944V4.616C77.8398 5.288 77.6318 5.784 77.2158 6.104C76.8318 6.424 76.2558 6.584 75.4878 6.584ZM106.422 9.944C106.966 9.944 107.414 10.136 107.766 10.52C108.15 10.872 108.342 11.32 108.342 11.864V33.032C108.342 33.576 108.15 34.04 107.766 34.424C107.414 34.808 106.966 35 106.422 35C105.846 35 105.382 34.808 105.03 34.424C104.678 34.04 104.502 33.576 104.502 33.032V28.472L105.414 28.376C105.414 29.08 105.174 29.848 104.694 30.68C104.214 31.512 103.558 32.296 102.726 33.032C101.894 33.736 100.902 34.328 99.7499 34.808C98.6299 35.256 97.4139 35.48 96.1019 35.48C93.9259 35.48 91.9739 34.92 90.2459 33.8C88.5179 32.648 87.1419 31.096 86.1179 29.144C85.1259 27.192 84.6299 24.968 84.6299 22.472C84.6299 19.944 85.1259 17.72 86.1179 15.8C87.1419 13.848 88.5179 12.328 90.2459 11.24C91.9739 10.12 93.8939 9.56 96.0059 9.56C97.3819 9.56 98.6619 9.784 99.8459 10.232C101.03 10.68 102.054 11.288 102.918 12.056C103.814 12.824 104.502 13.672 104.982 14.6C105.494 15.528 105.75 16.456 105.75 17.384L104.502 17.096V11.864C104.502 11.32 104.678 10.872 105.03 10.52C105.382 10.136 105.846 9.944 106.422 9.944ZM96.5339 31.928C98.1339 31.928 99.5419 31.512 100.758 30.68C102.006 29.848 102.966 28.728 103.638 27.32C104.342 25.88 104.694 24.264 104.694 22.472C104.694 20.712 104.342 19.128 103.638 17.72C102.966 16.28 102.006 15.16 100.758 14.36C99.5419 13.528 98.1339 13.112 96.5339 13.112C94.9659 13.112 93.5579 13.512 92.3099 14.312C91.0939 15.112 90.1339 16.216 89.4299 17.624C88.7259 19.032 88.3739 20.648 88.3739 22.472C88.3739 24.264 88.7099 25.88 89.3819 27.32C90.0859 28.728 91.0459 29.848 92.2619 30.68C93.5099 31.512 94.9339 31.928 96.5339 31.928Z" fill="#0094FF"/>
</g>
<defs>
<clipPath id="clip0_19_227">
<rect width="165" height="46" fill="white"/>
</clipPath>
</defs>
</svg>
