<svg width="677" height="803" viewBox="0 0 677 803" fill="none" xmlns="http://www.w3.org/2000/svg">
<g clip-path="url(#clip0_62_567)">
<path fill-rule="evenodd" clip-rule="evenodd" d="M654.206 33.335C662.062 40.0735 668.199 45.2152 674.21 50.5081C725.546 95.6627 748.762 152.69 746.723 220.716C744.951 279.918 730.182 335.714 704.736 388.973C697.677 403.742 698.074 403.934 712.549 412.415C734.175 425.089 743.677 444.155 735.159 467.687C724.469 497.235 711.668 526.225 697.31 554.181C686.411 575.393 665.509 585.026 642.305 582.602C625.556 580.845 618.04 586.919 609.879 600.208C581.706 646.09 547.59 686.926 501.851 716.696C400.847 782.439 269.306 760.067 195.487 664.707C163.195 622.998 143.734 575.223 130.958 524.699C127.44 510.785 121.683 505.473 107.681 502.432C79.6175 496.34 63.217 477.13 59.3313 448.422C56.1794 425.184 53.6375 401.852 51.251 378.525C47.5576 342.435 61.0936 324.727 97.2145 317.529C99.5304 317.068 101.707 315.901 105.576 314.449C103.398 294.928 100.193 275.224 99.1895 255.406C96.352 199.087 101.885 144.002 124.896 91.555C157.151 18.0163 216.02 -19.434 292.57 -32.6913C327.84 -38.7926 363.296 -37.9224 398.983 -34.4588C458.519 -28.6821 518.193 -24.0103 577.897 -20.2895C610.292 -18.2762 642.437 -21.5838 673.532 -32.7634C679.107 -34.7679 686.664 -31.2669 693.306 -30.3014C692.441 -24.453 691.865 -18.5422 690.57 -12.7914C690.093 -10.659 686.324 -8.45869 686.727 -7.05009C691.938 11.2054 676.974 16.5141 666.687 24.7583C663.558 27.2583 660.093 29.3199 654.206 33.335ZM637.776 551.815C659.781 556.145 669.149 552.507 678.427 533.833C688.855 512.858 698.2 491.281 706.83 469.496C715.12 448.583 711.859 441.391 689.517 433.51C669.128 426.33 666.262 406.885 656.919 391.859C659.372 352.667 638.033 324.088 613.377 297.81C591.812 274.821 568.064 253.897 546.011 231.355C535.92 221.05 525.794 210.002 519.011 197.484C513.972 188.184 513.317 176.024 512.765 165.034C512.582 161.313 518.686 157.269 521.92 153.375C524.138 157.185 528.147 160.943 528.278 164.817C528.97 186.012 540.339 201.253 554.735 214.92C565.885 225.508 577.754 235.347 588.707 246.113C627.039 283.797 667.076 320.395 676.773 381.486C681.077 373.998 683.206 370.723 684.921 367.245C705.243 325.981 715.024 281.875 719.223 236.451C725.543 168.204 705.116 110.371 651.06 66.0939C646.103 62.0377 638.218 57.6975 637.686 52.8357C636.064 38.0429 626.149 40.2227 616.81 39.6086C612.797 39.341 608.05 39.5497 605.004 37.5026C600.961 34.79 598.254 30.0835 594.969 26.2315C598.809 24.0654 602.439 20.8084 606.548 20.0262C611.145 19.1516 616.182 21.0063 621.003 20.8418C637.389 20.297 651.91 15.3853 665.567 0.708995C640.831 2.96876 619.361 6.02705 597.827 6.68696C536.18 8.56268 474.905 3.46113 413.97 -5.69021C376.116 -11.3764 338.252 -12.6935 300.324 -6.8736C229.818 3.93876 175.966 37.74 147.91 105.723C119.422 174.753 119.576 245.554 135.297 317.673C153.949 320.52 166.033 312.47 175.916 299.426C188.029 283.448 192.625 264.676 196.586 245.529C214.121 160.672 285.131 109.599 370.942 120.409C395.034 123.44 418.953 127.783 442.945 131.542C464.105 134.855 484.737 135.072 504.34 124.108C507.401 122.402 512.651 124.61 516.895 125.007C515.995 129.393 516.384 136.556 513.969 137.674C502.509 142.989 490.383 149.812 478.305 150.205C458.28 150.86 438.07 147.358 418.025 144.936C398.755 142.611 379.675 137.922 360.375 136.903C290.914 133.238 238.181 170.424 217.432 236.772C212.61 252.204 209.635 268.221 204.584 283.567C196 309.615 179.898 329.477 152.261 336.149C133.812 340.602 114.698 342.369 95.8589 345.203C84.733 346.879 76.7252 353.361 77.656 364.285C80.1944 394.058 83.3152 423.89 88.5215 453.284C91.2542 468.707 102.278 473.751 118.996 471.813C118.441 467.071 118.018 462.306 117.302 457.596C114.045 436.002 110.46 414.453 107.497 392.818C106.253 383.786 106.005 373.48 118.335 372.416C129.96 371.42 132.504 381.111 134.07 390.234C135.294 397.413 135.727 404.724 137.056 411.872C146.704 463.785 194.105 493.057 244.351 477.444C257.365 473.403 269.843 467.172 281.957 460.782C304.858 448.706 327.183 435.55 349.983 423.266C381.004 406.545 406.893 410.239 431.518 434.648C440.714 443.764 449.265 453.516 458.461 462.632C476.259 480.258 492.775 499.641 512.538 514.73C559.717 550.732 616.294 535.579 641.78 482.113C645.594 474.111 649.008 465.373 654.904 459.155C658.068 455.818 666.874 455.17 671.686 457.042C674.716 458.217 676.448 466.362 676.213 471.26C676.003 475.707 672.306 479.976 670.206 484.348C659.467 506.671 648.748 528.988 637.776 551.815ZM606.891 546.307C552.051 564.379 510.664 544.313 474.783 505.961C470.362 501.233 465.771 496.66 461.295 491.986C447.335 477.367 433.656 462.459 419.364 448.16C399.439 428.236 383.586 425.99 358.348 439.356C341.91 448.057 326.019 457.8 309.541 466.414C291.657 475.763 273.891 485.678 255.148 492.968C222.971 505.489 191.691 502.158 162.549 482.793C159.035 480.463 155.035 478.877 147.279 474.907C150.936 491.765 153.163 504.293 156.399 516.557C170.793 571.071 190.738 623.18 230.86 664.401C285.631 720.662 352.365 739.568 428.227 719.903C450.433 714.146 472.344 703.406 491.554 690.681C544.788 655.415 579.438 604.263 606.891 546.307Z" fill="white"/>
<path fill-rule="evenodd" clip-rule="evenodd" d="M303.415 288.09C313.721 289.64 324.225 290.401 334.215 293.104C338.565 294.278 341.836 299.448 345.594 302.798C341.408 305.381 336.927 310.548 333.076 310.116C310.001 307.522 286.991 304.058 264.171 299.767C260.321 299.046 257.495 292.893 254.189 289.241C258.714 287.079 263.338 282.907 267.729 283.151C279.672 283.811 291.514 286.334 303.406 288.122C303.411 288.118 303.413 288.104 303.415 288.09Z" fill="white"/>
<path fill-rule="evenodd" clip-rule="evenodd" d="M514.879 337.855C503.76 336.183 492.419 335.325 481.632 332.416C477.587 331.321 474.827 325.453 471.485 321.758C475.332 319.612 479.445 315.249 482.976 315.671C506.891 318.529 530.766 321.972 554.442 326.354C558.335 327.072 561.211 333.336 564.556 337.041C559.907 339.142 555.15 343.228 550.628 342.974C538.648 342.308 526.774 339.775 514.859 337.984C514.866 337.938 514.873 337.892 514.879 337.855Z" fill="white"/>
<path fill-rule="evenodd" clip-rule="evenodd" d="M518.659 395.862C517.246 402.054 517.348 409.363 513.956 414.216C510.893 418.576 503.533 423.013 498.905 422.27C494.532 421.565 488.118 414.177 488.079 409.683C487.984 397.797 489.746 385.57 493.068 374.141C494.459 369.351 502.834 362.318 505.956 363.26C511.513 364.928 517.399 371.144 519.582 376.826C521.646 382.221 519.152 389.376 518.659 395.862Z" fill="white"/>
<path fill-rule="evenodd" clip-rule="evenodd" d="M309.128 364.457C307.581 370.657 307.11 378.319 303.674 384.278C301.479 388.091 294.585 391.723 290.392 391.145C286.171 390.558 279.31 384.475 279.48 381.104C280.187 366.969 282.297 352.742 285.764 339.022C286.651 335.513 295.471 330.742 298.768 331.9C303.581 333.584 308.531 339.573 310.048 344.711C311.737 350.433 309.641 357.269 309.128 364.457Z" fill="white"/>
<path fill-rule="evenodd" clip-rule="evenodd" d="M267.015 568.382C266.658 569.652 266.625 573.493 264.715 575.656C261.866 578.874 257.686 580.913 254.074 583.45C251.996 579.689 249.134 576.132 248.113 572.105C247.408 569.336 250.693 565.323 249.696 562.893C246.859 555.968 244.222 547.204 238.658 543.724C234.414 541.061 223.062 543.138 219.842 547.124C215.594 552.383 214.803 561.644 215.22 569.033C215.498 573.975 221.135 578.389 223.173 583.52C225.519 589.435 219.884 595.048 213.797 592.97C210.17 591.734 206.511 589.424 203.888 586.641C191.959 573.965 191.583 552.558 202.619 537.639C212.769 523.92 230.169 518.864 245.485 525.178C261.51 531.787 270.33 548.471 267.015 568.382Z" fill="white"/>
<path fill-rule="evenodd" clip-rule="evenodd" d="M360.086 645.796C344.604 641.274 329.785 637.471 315.371 632.481C309.49 630.447 304.102 626.302 299.302 622.171C297.497 620.622 296.515 615.163 297.767 613.663C299.935 611.07 304.303 608.605 307.448 608.922C312.021 609.397 316.386 612.299 320.748 614.336C347.755 626.92 375.985 630.837 405.492 626.954C412.895 625.976 423.887 620.817 426.134 631.797C428.758 644.603 415.282 644.516 407.771 645.241C391.847 646.773 375.681 645.762 360.086 645.796Z" fill="white"/>
<path fill-rule="evenodd" clip-rule="evenodd" d="M371.806 564.568C355.608 559.328 341.025 554.837 326.626 549.811C322.136 548.247 317.185 546.069 314.224 542.639C311.664 539.663 311.619 534.519 310.465 530.335C314.734 529.468 319.444 526.983 323.187 528.01C341.696 533.1 359.64 540.755 378.389 544.278C392.309 546.891 407.178 544.95 421.594 544.294C428.837 543.968 437.809 540.918 438.978 551.107C440.094 560.834 430.321 561.909 423.522 562.429C405.951 563.775 388.292 563.953 371.806 564.568Z" fill="white"/>
<path fill-rule="evenodd" clip-rule="evenodd" d="M365.454 606.125C347.42 599.422 329.16 593.238 311.52 585.61C307.78 583.998 306.32 577.128 303.801 572.677C308.771 571.741 314.214 569.045 318.624 570.228C327.905 572.706 336.361 579.095 345.666 580.504C366.218 583.617 387.077 584.837 407.845 586.389C413.397 586.798 419.19 584.699 424.618 585.496C427.714 585.952 432.334 589.763 432.54 592.358C432.758 595.096 429.055 599.908 426.146 600.785C417.729 603.323 408.88 605.36 400.125 605.709C388.875 606.165 377.555 604.794 366.261 604.217C365.991 604.853 365.721 605.484 365.454 606.125Z" fill="white"/>
<path fill-rule="evenodd" clip-rule="evenodd" d="M372.993 490.067C374.428 480.525 375.147 470.8 377.648 461.555C378.633 457.929 383.609 455.38 386.766 452.346C389.406 455.736 394.604 459.422 394.256 462.463C391.729 483.987 388.336 505.423 384.449 526.748C383.955 529.469 378.995 531.377 376.102 533.666C373.463 530.261 368.459 526.737 368.619 523.474C369.168 512.299 371.534 501.218 373.206 490.099C373.132 490.088 373.062 490.078 372.993 490.067Z" fill="white"/>
</g>
<defs>
<clipPath id="clip0_62_567">
<rect width="692.833" height="825.224" fill="white" transform="translate(122.683 -116.976) rotate(8.54962)"/>
</clipPath>
</defs>
</svg>
